<?xml version="1.0" encoding="UTF-8" standalone="no"?>
<svg fill="white"
   xmlns:dc="http://purl.org/dc/elements/1.1/"
   xmlns:cc="http://creativecommons.org/ns#"
   xmlns:rdf="http://www.w3.org/1999/02/22-rdf-syntax-ns#"
   xmlns:svg="http://www.w3.org/2000/svg"
   xmlns="http://www.w3.org/2000/svg"
   xmlns:sodipodi="http://sodipodi.sourceforge.net/DTD/sodipodi-0.dtd"
   xmlns:inkscape="http://www.inkscape.org/namespaces/inkscape"
   version="1.1"
   id="Capa_1"
   x="0px"
   y="0px"
   viewBox="0 0 512 512"
   style="enable-background:new 0 0 512 512;"
   xml:space="preserve"
   sodipodi:docname="square.svg"
   inkscape:version="1.0.1 (3bc2e813f5, 2020-09-07)"><metadata
   id="metadata94"><rdf:RDF><cc:Work
       rdf:about=""><dc:format>image/svg+xml</dc:format><dc:type
         rdf:resource="http://purl.org/dc/dcmitype/StillImage" /></cc:Work></rdf:RDF></metadata><defs
   id="defs92" /><sodipodi:namedview
   pagecolor="#ffffff"
   bordercolor="#666666"
   borderopacity="1"
   objecttolerance="10"
   gridtolerance="10"
   guidetolerance="10"
   inkscape:pageopacity="0"
   inkscape:pageshadow="2"
   inkscape:window-width="1920"
   inkscape:window-height="1017"
   id="namedview90"
   showgrid="false"
   inkscape:zoom="1.1739077"
   inkscape:cx="318.57535"
   inkscape:cy="300.83023"
   inkscape:window-x="1672"
   inkscape:window-y="-8"
   inkscape:window-maximized="1"
   inkscape:current-layer="Capa_1" />
<g
   id="g57">
	<g
   id="g55">
		<path
   d="M452,0H60C26.916,0,0,26.916,0,60v392c0,33.084,26.916,60,60,60h392c33.084,0,60-26.916,60-60V60    C512,26.916,485.084,0,452,0z M472,452c0,11.028-8.972,20-20,20H60c-11.028,0-20-8.972-20-20V60c0-11.028,8.972-20,20-20h392    c11.028,0,20,8.972,20,20V452z"
   id="path53" />
	</g>
</g>
<g
   id="g59">
</g>
<g
   id="g61">
</g>
<g
   id="g63">
</g>
<g
   id="g65">
</g>
<g
   id="g67">
</g>
<g
   id="g69">
</g>
<g
   id="g71">
</g>
<g
   id="g73">
</g>
<g
   id="g75">
</g>
<g
   id="g77">
</g>
<g
   id="g79">
</g>
<g
   id="g81">
</g>
<g
   id="g83">
</g>
<g
   id="g85">
</g>
<g
   id="g87">
</g>
<path
   d="M 431.12954,27.259384 H 80.870465 c -29.561151,0 -53.611083,24.049932 -53.611083,53.611083 V 431.12954 c 0,29.56115 24.049932,53.61108 53.611083,53.61108 H 431.12954 c 29.56115,0 53.61108,-24.04993 53.61108,-53.61108 V 80.870467 c 0,-29.561151 -24.04993,-53.611083 -53.61108,-53.611083 z M 448.9999,431.12954 c 0,9.85371 -8.01665,17.87036 -17.87036,17.87036 H 80.870465 c -9.853717,0 -17.870361,-8.01665 -17.870361,-17.87036 V 80.870467 c 0,-9.853717 8.016644,-17.870361 17.870361,-17.870361 H 431.12954 c 9.85371,0 17.87036,8.016644 17.87036,17.870361 z"
   id="path53-2"
   style="stroke-width:0.893518" /><path
   d="M 412.92372,53.22362 H 102.44897 c -26.203434,0 -47.521643,21.318208 -47.521643,47.52165 v 310.47475 c 0,26.20343 21.318209,47.52165 47.521643,47.52165 h 310.47475 c 26.20344,0 47.52165,-21.31822 47.52165,-47.52165 V 100.74527 c 0,-26.203442 -21.31821,-47.52165 -47.52165,-47.52165 z m 15.84055,357.9964 c 0,8.73448 -7.10607,15.84055 -15.84055,15.84055 H 102.44897 c -8.734471,0 -15.840547,-7.10607 -15.840547,-15.84055 V 100.74527 c 0,-8.734488 7.106076,-15.840555 15.840547,-15.840555 h 310.47475 c 8.73448,0 15.84055,7.106067 15.84055,15.840555 z"
   id="path53-2-3"
   style="stroke-width:0.792024" /><path
   d="M 399.87968,70.260734 H 115.49301 c -24.001649,0 -43.528566,19.526917 -43.528566,43.528576 v 284.38667 c 0,24.00165 19.526917,43.52858 43.528566,43.52858 h 284.38667 c 24.00166,0 43.52858,-19.52693 43.52858,-43.52858 V 113.78931 c 0,-24.001659 -19.52692,-43.528576 -43.52858,-43.528576 z m 14.50953,327.915246 c 0,8.00055 -6.50898,14.50953 -14.50953,14.50953 H 115.49301 c -8.00054,0 -14.50952,-6.50898 -14.50952,-14.50953 V 113.78931 c 0,-8.00056 6.50898,-14.509525 14.50952,-14.509525 h 284.38667 c 8.00055,0 14.50953,6.508965 14.50953,14.509525 z"
   id="path53-2-3-2"
   style="stroke-width:0.725473" /></svg>
