<?xml version="1.0" encoding="UTF-8" standalone="no"?>
<svg
   xmlns:dc="http://purl.org/dc/elements/1.1/"
   xmlns:cc="http://creativecommons.org/ns#"
   xmlns:rdf="http://www.w3.org/1999/02/22-rdf-syntax-ns#"
   xmlns:svg="http://www.w3.org/2000/svg"
   xmlns="http://www.w3.org/2000/svg"
   xmlns:sodipodi="http://sodipodi.sourceforge.net/DTD/sodipodi-0.dtd"
   xmlns:inkscape="http://www.inkscape.org/namespaces/inkscape"
   width="10cm"
   height="10cm"
   viewBox="0 0 100 99.999997"
   version="1.1"
   id="svg8"
   inkscape:version="1.0.1 (3bc2e813f5, 2020-09-07, custom)"
   sodipodi:docname="search.svg">
  <defs
     id="defs2" />
  <sodipodi:namedview
     id="base"
     pagecolor="#ffffff"
     bordercolor="#666666"
     borderopacity="1.0"
     inkscape:pageopacity="0.0"
     inkscape:pageshadow="2"
     inkscape:zoom="1.4"
     inkscape:cx="140.60557"
     inkscape:cy="195.12008"
     inkscape:document-units="mm"
     inkscape:current-layer="layer1"
     inkscape:document-rotation="0"
     showgrid="false"
     units="cm"
     inkscape:pagecheckerboard="true"
     inkscape:snap-midpoints="false"
     inkscape:window-width="1680"
     inkscape:window-height="980"
     inkscape:window-x="0"
     inkscape:window-y="0"
     inkscape:window-maximized="1" />
  <metadata
     id="metadata5">
    <rdf:RDF>
      <cc:Work
         rdf:about="">
        <dc:format>image/svg+xml</dc:format>
        <dc:type
           rdf:resource="http://purl.org/dc/dcmitype/StillImage" />
        <dc:title></dc:title>
      </cc:Work>
    </rdf:RDF>
  </metadata>
  <g
     inkscape:label="Layer 1"
     inkscape:groupmode="layer"
     id="layer1">
    <g
       id="g972"
       transform="translate(-0.28613503,5.4289444)"
       style="fill:#ffffff">
      <path
         id="path870"
         style="fill:#ffffff;stroke-width:0.264583"
         d="M 41.306447,6.1382004 A 29.324157,29.324157 0 0 0 11.982138,35.462509 29.324157,29.324157 0 0 0 41.306447,64.786816 29.324157,29.324157 0 0 0 70.630755,35.462509 29.324157,29.324157 0 0 0 41.306447,6.1382004 Z m -0.0801,7.6098716 a 21.699671,21.699671 0 0 1 0.03411,0 21.699671,21.699671 0 0 1 21.699966,21.699967 21.699671,21.699671 0 0 1 -21.699966,21.69945 21.699671,21.699671 0 0 1 -21.69945,-21.69945 21.699671,21.699671 0 0 1 21.665343,-21.699967 z" />
      <rect
         style="fill:#ffffff;stroke-width:0.27025"
         id="rect968"
         width="11.875344"
         height="41.357792"
         x="-1.9876173"
         y="77.849594"
         ry="7.2577009"
         transform="rotate(-45)" />
    </g>
  </g>
</svg>
