<?xml version="1.0" encoding="iso-8859-1"?>
<!-- Generator: Adobe Illustrator 19.0.0, SVG Export Plug-In . SVG Version: 6.00 Build 0)  -->
<svg version="1.1" id="Capa_1" xmlns="http://www.w3.org/2000/svg" xmlns:xlink="http://www.w3.org/1999/xlink" x="0px" y="0px"
	 viewBox="0 0 374.073 374.073" style="enable-background:new 0 0 374.073 374.073;" xml:space="preserve">
<g>
	<g>
		<g>
			<path d="M187.037,72.62c-63.19,0-114.416,51.226-114.416,114.416s51.226,114.416,114.416,114.416s114.416-51.226,114.416-114.416
				S250.227,72.62,187.037,72.62z M187.037,280.555V93.518c44.404-0.118,82.698,31.173,91.429,74.71
				c2.786,12.384,2.786,25.232,0,37.616C269.734,249.383,231.441,280.674,187.037,280.555z"/>
			<path d="M278.988,95.086c1.929,1.969,4.558,3.095,7.314,3.135c2.756-0.039,5.385-1.166,7.314-3.135l25.6-25.6
				c4.617-3.463,5.552-10.012,2.09-14.629s-10.012-5.552-14.629-2.09c-0.792,0.594-1.496,1.298-2.09,2.09l-25.6,25.6
				c-4.04,3.706-4.31,9.986-0.603,14.025C278.577,94.692,278.778,94.893,278.988,95.086z"/>
			<path d="M92.996,278.988c-3.715-2.786-8.824-2.786-12.539,0l-25.6,25.6c-4.04,3.706-4.31,9.986-0.603,14.025
				c0.192,0.21,0.394,0.411,0.603,0.603c3.706,4.04,9.986,4.31,14.025,0.603c0.21-0.192,0.411-0.394,0.603-0.603l25.6-25.6
				C98.548,289,97.613,282.45,92.996,278.988z"/>
			<path d="M319.216,304.588l-25.6-25.6c-4.617-3.463-11.166-2.527-14.629,2.09c-2.786,3.715-2.786,8.824,0,12.539l25.6,25.6
				c3.706,4.04,9.986,4.31,14.025,0.603c0.21-0.192,0.411-0.394,0.603-0.603c4.04-3.706,4.31-9.986,0.603-14.025
				C319.627,304.981,319.426,304.78,319.216,304.588z"/>
			<path d="M80.457,95.086c3.706,4.04,9.986,4.31,14.025,0.603c0.21-0.192,0.411-0.394,0.603-0.603
				c4.04-3.706,4.31-9.986,0.603-14.025c-0.192-0.21-0.394-0.411-0.603-0.603l-25.6-25.6c-4.617-3.463-11.166-2.527-14.629,2.09
				c-2.786,3.715-2.786,8.824,0,12.539L80.457,95.086z"/>
			<path d="M187.037,56.947c5.771,0,10.449-4.678,10.449-10.449V10.449C197.486,4.678,192.808,0,187.037,0
				s-10.449,4.678-10.449,10.449v36.049C176.588,52.269,181.266,56.947,187.037,56.947z"/>
			<path d="M187.037,317.127c-5.771,0-10.449,4.678-10.449,10.449v36.049c0,5.771,4.678,10.449,10.449,10.449
				s10.449-4.678,10.449-10.449v-36.049C197.486,321.805,192.808,317.127,187.037,317.127z"/>
			<path d="M363.625,176.588h-36.049c-5.771,0-10.449,4.678-10.449,10.449s4.678,10.449,10.449,10.449h36.049
				c5.771,0,10.449-4.678,10.449-10.449S369.395,176.588,363.625,176.588z"/>
			<path d="M56.947,187.037c0-5.771-4.678-10.449-10.449-10.449H10.449C4.678,176.588,0,181.266,0,187.037
				s4.678,10.449,10.449,10.449h36.049C52.269,197.486,56.947,192.808,56.947,187.037z"/>
		</g>
	</g>
</g>
<g>
</g>
<g>
</g>
<g>
</g>
<g>
</g>
<g>
</g>
<g>
</g>
<g>
</g>
<g>
</g>
<g>
</g>
<g>
</g>
<g>
</g>
<g>
</g>
<g>
</g>
<g>
</g>
<g>
</g>
</svg>
