<svg height="512pt" viewBox="0 -39 512 512" width="512pt" xmlns="http://www.w3.org/2000/svg"><path d="m492 0h-472c-11.046875 0-20 8.953125-20 20v314.667969c0 11.046875 8.953125 20 20 20h124.972656l-24.859375 49.722656c-6.636719 13.269531 3.023438 28.941406 17.886719 28.941406h236c14.839844 0 24.535156-15.648437 17.890625-28.941406l-24.863281-49.722656h124.972656c11.046875 0 20-8.953125 20-20v-314.667969c0-11.046875-8.953125-20-20-20zm-150.359375 393.335938h-171.28125l19.335937-38.667969h132.609376zm130.359375-78.667969h-432v-274.667969h432zm0 0"/></svg>