<?xml version="1.0" encoding="UTF-8" standalone="no"?>
<svg
   xmlns:dc="http://purl.org/dc/elements/1.1/"
   xmlns:cc="http://creativecommons.org/ns#"
   xmlns:rdf="http://www.w3.org/1999/02/22-rdf-syntax-ns#"
   xmlns:svg="http://www.w3.org/2000/svg"
   xmlns="http://www.w3.org/2000/svg"
   xmlns:sodipodi="http://sodipodi.sourceforge.net/DTD/sodipodi-0.dtd"
   xmlns:inkscape="http://www.inkscape.org/namespaces/inkscape"
   width="10cm"
   height="10cm"
   viewBox="0 0 100 99.999999"
   version="1.1"
   id="svg8"
   inkscape:version="1.0.1 (3bc2e813f5, 2020-09-07)"
   sodipodi:docname="logo.svg">
  <defs
     id="defs2">
    <rect
       x="37.967413"
       y="48.29827"
       width="24.867079"
       height="17.173057"
       id="rect1017" />
    <rect
       x="37.967415"
       y="48.298271"
       width="24.867079"
       height="17.173058"
       id="rect1017-8" />
    <rect
       x="37.967415"
       y="48.298271"
       width="24.867079"
       height="17.173058"
       id="rect2143" />
    <rect
       x="37.967415"
       y="48.298271"
       width="24.867079"
       height="17.173058"
       id="rect1017-6" />
    <rect
       x="37.967415"
       y="48.298271"
       width="24.867079"
       height="17.173058"
       id="rect2173" />
  </defs>
  <sodipodi:namedview
     id="base"
     pagecolor="#ffffff"
     bordercolor="#666666"
     borderopacity="1.0"
     inkscape:pageopacity="0"
     inkscape:pageshadow="2"
     inkscape:zoom="0.7"
     inkscape:cx="27.190719"
     inkscape:cy="243.12063"
     inkscape:document-units="mm"
     inkscape:current-layer="layer1"
     inkscape:document-rotation="0"
     showgrid="false"
     units="cm"
     inkscape:pagecheckerboard="true"
     inkscape:window-width="1680"
     inkscape:window-height="980"
     inkscape:window-x="0"
     inkscape:window-y="0"
     inkscape:window-maximized="1" />
  <metadata
     id="metadata5">
    <rdf:RDF>
      <cc:Work
         rdf:about="">
        <dc:format>image/svg+xml</dc:format>
        <dc:type
           rdf:resource="http://purl.org/dc/dcmitype/StillImage" />
        <dc:title></dc:title>
      </cc:Work>
    </rdf:RDF>
  </metadata>
  <g
     inkscape:label="Layer 1"
     inkscape:groupmode="layer"
     id="layer1">
    <rect
       style="fill:#141414;stroke-width:0.264583;fill-opacity:1"
       id="rect40"
       width="100.48703"
       height="100.17255"
       x="-0.10482933"
       y="0.16536458" />
    <path
       style="fill:#141414;fill-opacity:1;stroke-width:0.714286"
       d="M 0.13244629,189.92641 V 0.64069257 H 189.41816 378.70388 V 189.92641 379.21212 H 189.41816 0.13244629 Z"
       id="path915"
       transform="scale(0.26458333)" />
    <path
       style="fill:#141414;fill-opacity:1;stroke-width:0.714286"
       d="M 0.13244629,189.92641 V 0.64069257 H 189.41816 378.70388 V 189.92641 379.21212 H 189.41816 0.13244629 Z"
       id="path917"
       transform="scale(0.26458333)" />
    <path
       style="fill:#141414;fill-opacity:1;stroke-width:0.714286"
       d="M 0.13244629,189.92641 V 0.64069257 H 189.41816 378.70388 V 189.92641 379.21212 H 189.41816 0.13244629 Z"
       id="path919"
       transform="scale(0.26458333)" />
    <path
       style="fill:#141414;fill-opacity:1;stroke-width:0.714286"
       d="M 0.13244629,189.92641 V 0.64069257 H 189.41816 378.70388 V 189.92641 379.21212 H 189.41816 0.13244629 Z"
       id="path921"
       transform="scale(0.26458333)" />
    <path
       style="fill:#141414;fill-opacity:1;stroke-width:0.714286"
       d="M 0.13244629,189.92641 V 0.64069257 H 189.41816 378.70388 V 189.92641 379.21212 H 189.41816 0.13244629 Z"
       id="path923"
       transform="scale(0.26458333)" />
    <path
       style="fill:#141414;fill-opacity:0;stroke-width:0.714286;opacity:1"
       d="M 0.13244629,189.92641 V 0.64069257 H 189.41816 378.70388 V 189.92641 379.21212 H 189.41816 0.13244629 Z"
       id="path927"
       transform="scale(0.26458333)" />
    <path
       style="opacity:1;fill:#141414;fill-opacity:0;stroke-width:0.714286"
       d="M 0.13244629,189.92641 V 0.64069257 H 189.41816 378.70388 V 189.92641 379.21212 H 189.41816 0.13244629 Z"
       id="path1001"
       transform="scale(0.26458333)" />
    <path
       style="opacity:1;fill:#141414;fill-opacity:0;stroke-width:0.714286"
       d="M 0.13244629,189.92641 V 0.64069257 H 189.41816 378.70388 V 189.92641 379.21212 H 189.41816 0.13244629 Z"
       id="path1003"
       transform="scale(0.26458333)" />
    <path
       style="opacity:1;fill:#141414;fill-opacity:0;stroke-width:0.714286"
       d="M 0.13244629,189.92641 V 0.64069257 H 189.41816 378.70388 V 189.92641 379.21212 H 189.41816 0.13244629 Z"
       id="path1005"
       transform="scale(0.26458333)" />
    <path
       style="opacity:1;fill:#141414;fill-opacity:0;stroke-width:0.714286"
       d="M 0.13244629,189.92641 V 0.64069257 H 189.41816 378.70388 V 189.92641 379.21212 H 189.41816 0.13244629 Z"
       id="path1007"
       transform="scale(0.26458333)" />
    <path
       style="opacity:1;fill:#141414;fill-opacity:0;stroke-width:0.714286"
       d="M 0.13244629,189.92641 V 0.64069257 H 189.41816 378.70388 V 189.92641 379.21212 H 189.41816 0.13244629 Z"
       id="path1009"
       transform="scale(0.26458333)" />
    <path
       style="opacity:1;fill:#141414;fill-opacity:0;stroke-width:0.714286"
       d="M 0.13244629,189.92641 V 0.64069257 H 189.41816 378.70388 V 189.92641 379.21212 H 189.41816 0.13244629 Z"
       id="path1011"
       transform="scale(0.26458333)" />
    <path
       style="opacity:1;fill:#141414;fill-opacity:0;stroke-width:0.714286"
       d="M 0.13244629,189.92641 V 0.64069257 H 189.41816 378.70388 V 189.92641 379.21212 H 189.41816 0.13244629 Z"
       id="path1013"
       transform="scale(0.26458333)" />
    <g
       inkscape:label="Layer 1"
       id="layer1-2"
       transform="matrix(0.99706746,0,0,0.99992004,0.11090648,0.00331451)">
      <rect
         style="fill:#141414;fill-opacity:1;stroke-width:0.264583"
         id="rect40-1"
         width="100.48703"
         height="100.17255"
         x="-0.10482933"
         y="0.16536458" />
      <path
         style="fill:#141414;fill-opacity:1;stroke-width:0.714286"
         d="M 0.13244629,189.92641 V 0.64069257 H 189.41816 378.70388 V 189.92641 379.21212 H 189.41816 0.13244629 Z"
         id="path915-0"
         transform="scale(0.26458333)" />
      <path
         style="fill:#141414;fill-opacity:1;stroke-width:0.714286"
         d="M 0.13244629,189.92641 V 0.64069257 H 189.41816 378.70388 V 189.92641 379.21212 H 189.41816 0.13244629 Z"
         id="path917-6"
         transform="scale(0.26458333)" />
      <path
         style="fill:#141414;fill-opacity:1;stroke-width:0.714286"
         d="M 0.13244629,189.92641 V 0.64069257 H 189.41816 378.70388 V 189.92641 379.21212 H 189.41816 0.13244629 Z"
         id="path919-3"
         transform="scale(0.26458333)" />
      <path
         style="fill:#141414;fill-opacity:1;stroke-width:0.714286"
         d="M 0.13244629,189.92641 V 0.64069257 H 189.41816 378.70388 V 189.92641 379.21212 H 189.41816 0.13244629 Z"
         id="path921-2"
         transform="scale(0.26458333)" />
      <path
         style="fill:#141414;fill-opacity:1;stroke-width:0.714286"
         d="M 0.13244629,189.92641 V 0.64069257 H 189.41816 378.70388 V 189.92641 379.21212 H 189.41816 0.13244629 Z"
         id="path923-0"
         transform="scale(0.26458333)" />
      <path
         style="fill:#222222;fill-opacity:1;stroke-width:0.714286"
         d="M 0.13244629,189.92641 V 0.64069257 H 189.41816 378.70388 V 189.92641 379.21212 H 189.41816 0.13244629 Z"
         id="path925"
         transform="scale(0.26458333)" />
      <path
         style="opacity:1;fill:#141414;fill-opacity:0;stroke-width:0.714286"
         d="M 0.13244629,189.92641 V 0.64069257 H 189.41816 378.70388 V 189.92641 379.21212 H 189.41816 0.13244629 Z"
         id="path927-6"
         transform="scale(0.26458333)" />
      <path
         style="opacity:1;fill:#141414;fill-opacity:0;stroke-width:0.714286"
         d="M 0.13244629,189.92641 V 0.64069257 H 189.41816 378.70388 V 189.92641 379.21212 H 189.41816 0.13244629 Z"
         id="path1001-1"
         transform="scale(0.26458333)" />
      <path
         style="opacity:1;fill:#141414;fill-opacity:0;stroke-width:0.714286"
         d="M 0.13244629,189.92641 V 0.64069257 H 189.41816 378.70388 V 189.92641 379.21212 H 189.41816 0.13244629 Z"
         id="path1003-5"
         transform="scale(0.26458333)" />
      <path
         style="opacity:1;fill:#141414;fill-opacity:0;stroke-width:0.714286"
         d="M 0.13244629,189.92641 V 0.64069257 H 189.41816 378.70388 V 189.92641 379.21212 H 189.41816 0.13244629 Z"
         id="path1005-5"
         transform="scale(0.26458333)" />
      <path
         style="opacity:1;fill:#141414;fill-opacity:0;stroke-width:0.714286"
         d="M 0.13244629,189.92641 V 0.64069257 H 189.41816 378.70388 V 189.92641 379.21212 H 189.41816 0.13244629 Z"
         id="path1007-4"
         transform="scale(0.26458333)" />
      <path
         style="opacity:1;fill:#141414;fill-opacity:0;stroke-width:0.714286"
         d="M 0.13244629,189.92641 V 0.64069257 H 189.41816 378.70388 V 189.92641 379.21212 H 189.41816 0.13244629 Z"
         id="path1009-7"
         transform="scale(0.26458333)" />
      <path
         style="opacity:1;fill:#141414;fill-opacity:0;stroke-width:0.714286"
         d="M 0.13244629,189.92641 V 0.64069257 H 189.41816 378.70388 V 189.92641 379.21212 H 189.41816 0.13244629 Z"
         id="path1011-6"
         transform="scale(0.26458333)" />
      <path
         style="opacity:1;fill:#141414;fill-opacity:0;stroke-width:0.714286"
         d="M 0.13244629,189.92641 V 0.64069257 H 189.41816 378.70388 V 189.92641 379.21212 H 189.41816 0.13244629 Z"
         id="path1013-5"
         transform="scale(0.26458333)" />
      <text
         xml:space="preserve"
         id="text1015"
         style="font-style:normal;font-weight:normal;font-size:10.5833px;line-height:1.25;font-family:sans-serif;white-space:pre;shape-inside:url(#rect1017-6);opacity:1;fill:#1964de;fill-opacity:1;stroke:none;"
         transform="matrix(5.2658552,0,0,6.2890036,-176.00458,-278.53349)"><tspan
           x="37.966797"
           y="58.08838"><tspan
             style="font-style:normal;font-variant:normal;font-weight:normal;font-stretch:normal;font-family:FreeMono;-inkscape-font-specification:FreeMono;fill:#1964de;fill-opacity:1">lW</tspan></tspan></text>
    </g>
  </g>
</svg>
