<svg height="512pt" viewBox="-21 0 512 512" width="512pt" xmlns="http://www.w3.org/2000/svg"><path d="m234.667969 170.667969c-8.832031 0-16-7.167969-16-16v-138.667969c0-8.832031 7.167969-16 16-16s16 7.167969 16 16v138.667969c0 8.832031-7.167969 16-16 16zm0 0"/><path d="m234.667969 512c-129.386719 0-234.667969-105.28125-234.667969-234.667969 0-98.21875 62.101562-186.898437 154.515625-220.691406 8.300781-3.007813 17.472656 1.238281 20.523437 9.535156 3.03125 8.300781-1.238281 17.472657-9.535156 20.523438-79.851562 29.183593-133.503906 105.792969-133.503906 190.632812 0 111.746094 90.921875 202.667969 202.667969 202.667969 111.742187 0 202.664062-90.921875 202.664062-202.667969 0-84.839843-53.652343-161.449219-133.480469-190.632812-8.300781-3.050781-12.566406-12.222657-9.535156-20.523438 3.027344-8.296875 12.199219-12.566406 20.519532-9.535156 92.394531 33.792969 154.496093 122.472656 154.496093 220.691406 0 129.386719-105.277343 234.667969-234.664062 234.667969zm0 0"/></svg>